PathFileType	4	(X/Y/Z)	SUBJ89_0_static_RCNL2025.trc
DataRate	CameraRate	NumFrames	NumMarkers	Units	OrigDataRate	OrigDataStartFrame	OrigNumFrames
100	100	7	25	mm	100	201	267
Frame#	Time	R_Shoulder			L_Shoulder			C7			J_Notch			R_Elbow			L_Elbow			R_Wrist			L_Wrist			R_Asis			L_Asis			Sacral			Thoracic			Sternum			R_Thigh_Lateral			R_Knee_Lateral			R_Shank_Lateral			R_Ankle_Lateral			R_Heel			R_Toe			L_Thigh_Lateral			L_Knee_Lateral			L_Shank_Lateral			L_Ankle_Lateral			L_Heel			L_Toe		
		X1	Y1	Z1	X2	Y2	Z2	X3	Y3	Z3	X4	Y4	Z4	X5	Y5	Z5	X6	Y6	Z6	X7	Y7	Z7	X8	Y8	Z8	X9	Y9	Z9	X10	Y10	Z10	X11	Y11	Z11	X12	Y12	Z12	X13	Y13	Z13	X14	Y14	Z14	X15	Y15	Z15	X16	Y16	Z16	X17	Y17	Z17	X18	Y18	Z18	X19	Y19	Z19	X20	Y20	Z20	X21	Y21	Z21	X22	Y22	Z22	X23	Y23	Z23	X24	Y24	Z24	X25	Y25	Z25
201	2.00000000	-226.670700	1453.694092	-45.072918	-255.636414	1451.076050	-432.841522	-295.126556	1515.961304	-244.502090	-164.448730	1401.019531	-240.188507	-247.541534	1191.975586	132.445312	-224.948898	1187.095093	-609.053711	-160.667908	964.961182	250.833878	-119.521709	977.644287	-736.169861	-151.552338	1002.684265	-109.650841	-144.457397	1007.774902	-350.990356	-319.035126	1050.953247	-221.670654	-363.372772	1335.288696	-229.818405	-126.051414	1253.934814	-248.553696	-213.460449	619.767761	-37.253208	-231.287750	501.762665	-89.708931	-283.404663	283.689423	-32.438766	-317.230194	74.791023	-95.855103	-352.198944	64.107193	-141.751953	-157.000351	35.878941	-101.059555	-197.447830	578.391724	-446.860870	-210.927338	493.297241	-374.164276	-268.085297	266.807983	-428.340424	-288.364441	67.349495	-366.076080	-325.133881	72.217842	-317.647400	-131.464844	35.967075	-360.354736
202	2.01000000	-226.637634	1453.773804	-45.162872	-255.779770	1451.023804	-432.897736	-295.199219	1515.975586	-244.451859	-164.561844	1401.000732	-240.227859	-247.504929	1192.064575	132.402878	-225.026840	1187.032104	-609.140686	-160.750343	965.038177	250.873611	-119.593655	977.556305	-736.269592	-151.614609	1002.625000	-109.745872	-144.521255	1007.669006	-351.198029	-319.047150	1050.959229	-221.674255	-363.484833	1335.310669	-229.858780	-126.185074	1253.947388	-248.595322	-213.441681	619.874878	-37.230492	-231.292587	501.764099	-89.710922	-283.373383	283.691711	-32.457485	-317.218445	74.802574	-95.864883	-352.195221	64.101166	-141.803833	-157.022049	35.911800	-101.072929	-197.428162	578.365112	-446.885498	-210.931442	493.308838	-374.169159	-268.080017	266.818817	-428.410309	-288.357849	67.404984	-366.141418	-325.131287	72.238365	-317.650787	-131.456512	35.924904	-360.323730
203	2.02000000	-226.700684	1453.779907	-45.215908	-255.811630	1451.035522	-432.951904	-295.260834	1515.957275	-244.519470	-164.635345	1400.972168	-240.397614	-247.583832	1192.091919	132.342346	-225.117279	1187.016113	-609.163940	-160.782768	965.083862	250.942993	-119.684414	977.553040	-736.314423	-151.619370	1002.641296	-109.765228	-144.461685	1007.703491	-351.130463	-319.095764	1050.990601	-221.711777	-363.475098	1335.305908	-229.912811	-126.206451	1253.930908	-248.591095	-213.501694	619.888489	-37.273613	-231.286606	501.762054	-89.711891	-283.415741	283.727051	-32.509090	-317.220673	74.811028	-95.873604	-352.223114	64.153084	-141.784714	-157.045334	35.884647	-101.065369	-197.499985	578.386047	-446.848511	-210.992050	493.330444	-374.265686	-268.076416	266.859680	-428.399841	-288.323853	67.388252	-366.185791	-325.110443	72.246635	-317.673584	-131.499802	35.953934	-360.328125
204	2.03000000	-226.765884	1453.837769	-45.290619	-255.881058	1450.943970	-433.031067	-295.365356	1515.844238	-244.532990	-164.725189	1400.985718	-240.498856	-247.647598	1192.213379	132.364365	-225.127457	1186.918823	-609.156189	-160.926636	965.169586	250.970993	-119.787933	977.452515	-736.347046	-151.675797	1002.646118	-109.803291	-144.540131	1007.710388	-351.103058	-319.171600	1050.974976	-221.720062	-363.551544	1335.320435	-229.948441	-126.330093	1253.817383	-248.658661	-213.611130	619.813721	-37.243622	-231.285309	501.761566	-89.712288	-283.443329	283.739349	-32.505566	-317.171417	74.798836	-95.891045	-352.287964	64.146126	-141.749603	-157.045593	35.885918	-101.060837	-197.578949	578.402039	-446.845581	-211.062622	493.350800	-374.259949	-268.141998	266.814636	-428.367828	-288.344299	67.437279	-366.136475	-325.126007	72.255318	-317.682343	-131.517975	36.002003	-360.346039
205	2.04000000	-226.840759	1453.779053	-45.371792	-255.968338	1450.869263	-433.132843	-295.370239	1515.943115	-244.441498	-164.758026	1400.928223	-240.521515	-247.684235	1192.232422	132.378815	-225.149246	1186.920654	-609.243835	-160.929588	965.246399	251.000259	-119.860695	977.366241	-736.406372	-151.797943	1002.618713	-109.700180	-144.566940	1007.698547	-351.064758	-319.176697	1050.974854	-221.692398	-363.533936	1335.222900	-229.961685	-126.341743	1253.890137	-248.700684	-213.619232	619.823242	-37.256069	-231.391510	501.769226	-89.754768	-283.513397	283.748901	-32.463013	-317.147369	74.772621	-95.846954	-352.195007	64.093872	-141.775467	-156.962448	35.894547	-101.013474	-197.672028	578.356384	-446.805298	-211.104782	493.352295	-374.228973	-268.141235	266.819794	-428.428864	-288.316315	67.292938	-366.146545	-325.117645	72.243530	-317.657776	-131.452560	35.933144	-360.289520
206	2.05000000	-226.863373	1453.865112	-45.408688	-256.001770	1450.822632	-433.163147	-295.495483	1515.929077	-244.448807	-164.782623	1400.967529	-240.629242	-247.791626	1192.285889	132.312210	-225.303375	1186.824341	-609.250366	-161.008423	965.318054	251.023994	-119.901325	977.372009	-736.413971	-151.819366	1002.619446	-109.697708	-144.627609	1007.664795	-351.123383	-319.226776	1050.965576	-221.780411	-363.593414	1335.212402	-230.018494	-126.428864	1253.928345	-248.756577	-213.566101	619.789856	-37.286221	-231.460724	501.743011	-89.746826	-283.564636	283.694244	-32.456329	-317.122162	74.771492	-95.824234	-352.195251	64.108589	-141.811569	-156.989883	35.884556	-101.021217	-197.730713	578.322937	-446.851288	-211.247208	493.342651	-374.237030	-268.228943	266.828369	-428.447876	-288.354126	67.359955	-366.132629	-325.151825	72.277351	-317.648987	-131.533325	35.974930	-360.305054
207	2.06000000	-226.913467	1453.874146	-45.449577	-256.093475	1450.821289	-433.185638	-295.570984	1515.930054	-244.448486	-164.904984	1400.953613	-240.734192	-247.871918	1192.375488	132.265533	-225.358322	1186.811035	-609.358582	-161.047089	965.390259	251.057152	-119.983070	977.315491	-736.459625	-151.816010	1002.647827	-109.702568	-144.623520	1007.691650	-351.111237	-319.269653	1051.014526	-221.758896	-363.599152	1335.232666	-230.041809	-126.406052	1253.908691	-248.637482	-213.702637	619.882080	-37.324966	-231.463150	501.742310	-89.744865	-283.544830	283.705933	-32.472134	-317.128540	74.810448	-95.824677	-352.200836	64.114616	-141.796448	-156.953995	35.931839	-101.018333	-197.726669	578.380676	-446.883087	-211.255508	493.336639	-374.233551	-268.235229	266.859192	-428.437347	-288.365875	67.356560	-366.146667	-325.168152	72.277855	-317.631317	-131.534897	35.969261	-360.307617
